<?xml version="1.0" standalone="no"?><!DOCTYPE svg PUBLIC "-//W3C//DTD SVG 1.1//EN" "http://www.w3.org/Graphics/SVG/1.1/DTD/svg11.dtd"><svg t="1634716512306" class="icon" viewBox="0 0 1024 1024" version="1.1" xmlns="http://www.w3.org/2000/svg" p-id="6991" xmlns:xlink="http://www.w3.org/1999/xlink" width="200" height="200"><defs><style type="text/css"></style></defs><path d="M853.333333 341.333333H170.666667v512c0 46.933333 38.4 85.333333 85.333333 85.333334h512c46.933333 0 85.333333-38.4 85.333333-85.333334V341.333333z" fill="#616161" p-id="6992"></path><path d="M768 85.333333H256C209.066667 85.333333 170.666667 123.733333 170.666667 170.666667v192h682.666666V170.666667c0-46.933333-38.4-85.333333-85.333333-85.333334z" fill="#424242" p-id="6993"></path><path d="M768 298.666667H256c-12.8 0-21.333333-8.533333-21.333333-21.333334V170.666667c0-12.8 8.533333-21.333333 21.333333-21.333334h512c12.8 0 21.333333 8.533333 21.333333 21.333334v106.666666c0 12.8-8.533333 21.333333-21.333333 21.333334z" fill="#9CCC65" p-id="6994"></path><path d="M704 213.333333h42.666667v42.666667h-42.666667zM618.666667 213.333333h42.666666v42.666667h-42.666666z" fill="#33691E" p-id="6995"></path><path d="M768 490.666667h-64c-12.8 0-21.333333-8.533333-21.333333-21.333334v-42.666666c0-12.8 8.533333-21.333333 21.333333-21.333334h64c12.8 0 21.333333 8.533333 21.333333 21.333334v42.666666c0 12.8-8.533333 21.333333-21.333333 21.333334z" fill="#FF5252" p-id="6996"></path><path d="M320 490.666667h-64c-12.8 0-21.333333-8.533333-21.333333-21.333334v-42.666666c0-12.8 8.533333-21.333333 21.333333-21.333334h64c12.8 0 21.333333 8.533333 21.333333 21.333334v42.666666c0 12.8-8.533333 21.333333-21.333333 21.333334zM469.333333 490.666667h-64c-12.8 0-21.333333-8.533333-21.333333-21.333334v-42.666666c0-12.8 8.533333-21.333333 21.333333-21.333334h64c12.8 0 21.333333 8.533333 21.333334 21.333334v42.666666c0 12.8-8.533333 21.333333-21.333334 21.333334zM618.666667 490.666667h-64c-12.8 0-21.333333-8.533333-21.333334-21.333334v-42.666666c0-12.8 8.533333-21.333333 21.333334-21.333334h64c12.8 0 21.333333 8.533333 21.333333 21.333334v42.666666c0 12.8-8.533333 21.333333-21.333333 21.333334zM320 618.666667h-64c-12.8 0-21.333333-8.533333-21.333333-21.333334v-42.666666c0-12.8 8.533333-21.333333 21.333333-21.333334h64c12.8 0 21.333333 8.533333 21.333333 21.333334v42.666666c0 12.8-8.533333 21.333333-21.333333 21.333334zM469.333333 618.666667h-64c-12.8 0-21.333333-8.533333-21.333333-21.333334v-42.666666c0-12.8 8.533333-21.333333 21.333333-21.333334h64c12.8 0 21.333333 8.533333 21.333334 21.333334v42.666666c0 12.8-8.533333 21.333333-21.333334 21.333334zM618.666667 618.666667h-64c-12.8 0-21.333333-8.533333-21.333334-21.333334v-42.666666c0-12.8 8.533333-21.333333 21.333334-21.333334h64c12.8 0 21.333333 8.533333 21.333333 21.333334v42.666666c0 12.8-8.533333 21.333333-21.333333 21.333334zM320 746.666667h-64c-12.8 0-21.333333-8.533333-21.333333-21.333334v-42.666666c0-12.8 8.533333-21.333333 21.333333-21.333334h64c12.8 0 21.333333 8.533333 21.333333 21.333334v42.666666c0 12.8-8.533333 21.333333-21.333333 21.333334zM469.333333 746.666667h-64c-12.8 0-21.333333-8.533333-21.333333-21.333334v-42.666666c0-12.8 8.533333-21.333333 21.333333-21.333334h64c12.8 0 21.333333 8.533333 21.333334 21.333334v42.666666c0 12.8-8.533333 21.333333-21.333334 21.333334zM618.666667 746.666667h-64c-12.8 0-21.333333-8.533333-21.333334-21.333334v-42.666666c0-12.8 8.533333-21.333333 21.333334-21.333334h64c12.8 0 21.333333 8.533333 21.333333 21.333334v42.666666c0 12.8-8.533333 21.333333-21.333333 21.333334zM320 874.666667h-64c-12.8 0-21.333333-8.533333-21.333333-21.333334v-42.666666c0-12.8 8.533333-21.333333 21.333333-21.333334h64c12.8 0 21.333333 8.533333 21.333333 21.333334v42.666666c0 12.8-8.533333 21.333333-21.333333 21.333334zM469.333333 874.666667h-64c-12.8 0-21.333333-8.533333-21.333333-21.333334v-42.666666c0-12.8 8.533333-21.333333 21.333333-21.333334h64c12.8 0 21.333333 8.533333 21.333334 21.333334v42.666666c0 12.8-8.533333 21.333333-21.333334 21.333334zM618.666667 874.666667h-64c-12.8 0-21.333333-8.533333-21.333334-21.333334v-42.666666c0-12.8 8.533333-21.333333 21.333334-21.333334h64c12.8 0 21.333333 8.533333 21.333333 21.333334v42.666666c0 12.8-8.533333 21.333333-21.333333 21.333334z" fill="#E0E0E0" p-id="6997"></path><path d="M768 618.666667h-64c-12.8 0-21.333333-8.533333-21.333333-21.333334v-42.666666c0-12.8 8.533333-21.333333 21.333333-21.333334h64c12.8 0 21.333333 8.533333 21.333333 21.333334v42.666666c0 12.8-8.533333 21.333333-21.333333 21.333334zM768 746.666667h-64c-12.8 0-21.333333-8.533333-21.333333-21.333334v-42.666666c0-12.8 8.533333-21.333333 21.333333-21.333334h64c12.8 0 21.333333 8.533333 21.333333 21.333334v42.666666c0 12.8-8.533333 21.333333-21.333333 21.333334zM768 874.666667h-64c-12.8 0-21.333333-8.533333-21.333333-21.333334v-42.666666c0-12.8 8.533333-21.333333 21.333333-21.333334h64c12.8 0 21.333333 8.533333 21.333333 21.333334v42.666666c0 12.8-8.533333 21.333333-21.333333 21.333334z" fill="#BDBDBD" p-id="6998"></path></svg>